<svg width="25" height="25" viewBox="0 0 25 25" fill="none" xmlns="http://www.w3.org/2000/svg">
<mask id="path-1-outside-1_4_5" maskUnits="userSpaceOnUse" x="-1.31702" y="-1.20364" width="27.8782" height="26.9596" fill="black">
<rect fill="white" x="-1.31702" y="-1.20364" width="27.8782" height="26.9596"/>
<path d="M12.72 1.0413C12.9249 0.666936 13.4778 0.710278 13.6216 1.11213L13.6247 1.12217L15.2669 6.00407L20.0282 4.03892C20.4322 3.87241 20.8388 4.27195 20.6793 4.6788L18.7989 9.47399L23.7088 11.0293C24.1253 11.1613 24.1806 11.7282 23.7971 11.9375L19.2747 14.4024L22.0364 18.7502C22.2704 19.1191 21.9472 19.5884 21.5189 19.502L16.4699 18.4833L15.7916 23.5894C15.7338 24.0225 15.184 24.1743 14.9114 23.8328L11.6993 19.8071L7.89688 23.2817C7.57431 23.5765 7.05596 23.3407 7.06649 22.9039L7.19286 17.7545L2.04672 17.9722C1.61029 17.9904 1.36504 17.4766 1.65394 17.1489L5.06074 13.2857L0.978769 10.1448C0.632459 9.87828 0.77488 9.32695 1.20685 9.26148L6.29937 8.49196L5.19188 3.46204C5.09864 3.03873 5.55417 2.70929 5.92557 2.92606L5.93492 2.93169L10.3309 5.61628L12.7154 1.05073L12.72 1.0413ZM16.5018 18.2272C16.366 18.1998 16.2357 18.2928 16.2175 18.4302L15.5358 23.5536C15.508 23.7626 15.2428 23.8365 15.1111 23.6721L15.112 23.6732C15.2415 23.8354 15.501 23.7668 15.5358 23.5654L15.5366 23.5557L16.2184 18.4312C16.2368 18.2941 16.368 18.201 16.5037 18.2283L21.5701 19.2504C21.7249 19.2816 21.8491 19.1625 21.8551 19.0259C21.8479 19.1619 21.7224 19.2803 21.5682 19.2492L16.5018 18.2272ZM11.7901 19.5605C11.7074 19.5267 11.6089 19.5395 11.5379 19.6044L7.72275 23.0917C7.63 23.1763 7.50463 23.1688 7.41901 23.105C7.50232 23.168 7.62373 23.1773 7.7163 23.099L7.72365 23.0927L11.5398 19.6055C11.6102 19.5413 11.7079 19.5276 11.7901 19.5605ZM12.7351 6.5849C9.41949 6.32441 6.52003 8.8006 6.25953 12.1162C5.99904 15.4318 8.47624 18.3304 11.7919 18.5909C15.1074 18.8512 18.006 16.375 18.2665 13.0595C18.5269 9.74398 16.0506 6.84549 12.7351 6.5849ZM2.03463 17.7146C1.95981 17.7177 1.89739 17.6877 1.85327 17.6416C1.89556 17.6866 1.95521 17.7172 2.02661 17.7169L2.0365 17.7157L7.20032 17.4974C7.24288 17.4956 7.28352 17.5045 7.31884 17.5224C7.28323 17.5042 7.24245 17.4946 7.19942 17.4964L2.03463 17.7146ZM21.8548 19.018C21.855 18.9977 21.8533 18.9774 21.8478 18.9568C21.8531 18.9773 21.8551 18.9977 21.8548 19.018ZM23.7976 11.4948C23.8002 11.5786 23.7596 11.6639 23.6729 11.7112L19.1341 14.1846C19.0125 14.251 18.9725 14.4066 19.0468 14.5236L21.8181 18.8859C21.8276 18.9007 21.8322 18.9171 21.838 18.9325C21.8334 18.9207 21.8309 18.9077 21.8242 18.8961L21.8199 18.888L19.0477 14.5246C18.9736 14.4077 19.0144 14.252 19.136 14.1858L23.6738 11.7123C23.7611 11.6647 23.8008 11.5789 23.7976 11.4948ZM12.6747 7.35401C15.5654 7.58123 17.7245 10.1084 17.4974 12.9991C17.2703 15.8898 14.743 18.0488 11.8523 17.8218C8.96147 17.5946 6.80153 15.0674 7.02864 12.1766C7.25577 9.28582 9.78387 7.1269 12.6747 7.35401ZM10.5635 10.0367C10.5171 9.93849 10.4001 9.89651 10.3016 9.9427C10.2031 9.98887 10.1605 10.1054 10.2066 10.2036C10.6872 11.2222 11.8806 11.6916 12.9289 11.2746L13.0614 11.2224C13.1626 11.1821 13.212 11.0674 13.1716 10.9665C13.1312 10.8658 13.0168 10.8164 12.9158 10.8563L12.7823 10.9095C11.9279 11.2492 10.9552 10.8668 10.5635 10.0367ZM23.6611 11.2871C23.6545 11.2841 23.6484 11.2793 23.6414 11.2768L23.6366 11.2754C23.6453 11.2785 23.6531 11.2833 23.6611 11.2871ZM11.8908 9.11443C11.5849 9.09057 11.3175 9.31896 11.2934 9.62487C11.2693 9.93085 11.4979 10.1981 11.8038 10.2223C12.1099 10.2464 12.3782 10.0181 12.4023 9.71199C12.4262 9.40597 12.1969 9.13848 11.8908 9.11443ZM13.4944 9.23944C13.1885 9.21556 12.921 9.44396 12.8969 9.74987C12.8729 10.0559 13.1014 10.3232 13.4073 10.3474C13.7134 10.3714 13.9817 10.1431 14.0058 9.83699C14.0297 9.53097 13.8004 9.26348 13.4944 9.23944ZM20.3838 4.32547C20.4475 4.38816 20.4774 4.48541 20.439 4.58351L18.5524 9.39584C18.5285 9.45668 18.5314 9.52088 18.5548 9.57627C18.532 9.5211 18.5296 9.45711 18.5532 9.39689L20.4399 4.58456C20.4785 4.48576 20.4485 4.38806 20.3838 4.32547ZM15.0281 6.1009C15.0287 6.10269 15.03 6.10423 15.0306 6.106L15.0299 6.103L13.3812 1.20393L13.3803 1.20288L15.0281 6.1009Z"/>
</mask>
<path d="M12.72 1.0413C12.9249 0.666936 13.4778 0.710278 13.6216 1.11213L13.6247 1.12217L15.2669 6.00407L20.0282 4.03892C20.4322 3.87241 20.8388 4.27195 20.6793 4.6788L18.7989 9.47399L23.7088 11.0293C24.1253 11.1613 24.1806 11.7282 23.7971 11.9375L19.2747 14.4024L22.0364 18.7502C22.2704 19.1191 21.9472 19.5884 21.5189 19.502L16.4699 18.4833L15.7916 23.5894C15.7338 24.0225 15.184 24.1743 14.9114 23.8328L11.6993 19.8071L7.89688 23.2817C7.57431 23.5765 7.05596 23.3407 7.06649 22.9039L7.19286 17.7545L2.04672 17.9722C1.61029 17.9904 1.36504 17.4766 1.65394 17.1489L5.06074 13.2857L0.978769 10.1448C0.632459 9.87828 0.77488 9.32695 1.20685 9.26148L6.29937 8.49196L5.19188 3.46204C5.09864 3.03873 5.55417 2.70929 5.92557 2.92606L5.93492 2.93169L10.3309 5.61628L12.7154 1.05073L12.72 1.0413ZM16.5018 18.2272C16.366 18.1998 16.2357 18.2928 16.2175 18.4302L15.5358 23.5536C15.508 23.7626 15.2428 23.8365 15.1111 23.6721L15.112 23.6732C15.2415 23.8354 15.501 23.7668 15.5358 23.5654L15.5366 23.5557L16.2184 18.4312C16.2368 18.2941 16.368 18.201 16.5037 18.2283L21.5701 19.2504C21.7249 19.2816 21.8491 19.1625 21.8551 19.0259C21.8479 19.1619 21.7224 19.2803 21.5682 19.2492L16.5018 18.2272ZM11.7901 19.5605C11.7074 19.5267 11.6089 19.5395 11.5379 19.6044L7.72275 23.0917C7.63 23.1763 7.50463 23.1688 7.41901 23.105C7.50232 23.168 7.62373 23.1773 7.7163 23.099L7.72365 23.0927L11.5398 19.6055C11.6102 19.5413 11.7079 19.5276 11.7901 19.5605ZM12.7351 6.5849C9.41949 6.32441 6.52003 8.8006 6.25953 12.1162C5.99904 15.4318 8.47624 18.3304 11.7919 18.5909C15.1074 18.8512 18.006 16.375 18.2665 13.0595C18.5269 9.74398 16.0506 6.84549 12.7351 6.5849ZM2.03463 17.7146C1.95981 17.7177 1.89739 17.6877 1.85327 17.6416C1.89556 17.6866 1.95521 17.7172 2.02661 17.7169L2.0365 17.7157L7.20032 17.4974C7.24288 17.4956 7.28352 17.5045 7.31884 17.5224C7.28323 17.5042 7.24245 17.4946 7.19942 17.4964L2.03463 17.7146ZM21.8548 19.018C21.855 18.9977 21.8533 18.9774 21.8478 18.9568C21.8531 18.9773 21.8551 18.9977 21.8548 19.018ZM23.7976 11.4948C23.8002 11.5786 23.7596 11.6639 23.6729 11.7112L19.1341 14.1846C19.0125 14.251 18.9725 14.4066 19.0468 14.5236L21.8181 18.8859C21.8276 18.9007 21.8322 18.9171 21.838 18.9325C21.8334 18.9207 21.8309 18.9077 21.8242 18.8961L21.8199 18.888L19.0477 14.5246C18.9736 14.4077 19.0144 14.252 19.136 14.1858L23.6738 11.7123C23.7611 11.6647 23.8008 11.5789 23.7976 11.4948ZM12.6747 7.35401C15.5654 7.58123 17.7245 10.1084 17.4974 12.9991C17.2703 15.8898 14.743 18.0488 11.8523 17.8218C8.96147 17.5946 6.80153 15.0674 7.02864 12.1766C7.25577 9.28582 9.78387 7.1269 12.6747 7.35401ZM10.5635 10.0367C10.5171 9.93849 10.4001 9.89651 10.3016 9.9427C10.2031 9.98887 10.1605 10.1054 10.2066 10.2036C10.6872 11.2222 11.8806 11.6916 12.9289 11.2746L13.0614 11.2224C13.1626 11.1821 13.212 11.0674 13.1716 10.9665C13.1312 10.8658 13.0168 10.8164 12.9158 10.8563L12.7823 10.9095C11.9279 11.2492 10.9552 10.8668 10.5635 10.0367ZM23.6611 11.2871C23.6545 11.2841 23.6484 11.2793 23.6414 11.2768L23.6366 11.2754C23.6453 11.2785 23.6531 11.2833 23.6611 11.2871ZM11.8908 9.11443C11.5849 9.09057 11.3175 9.31896 11.2934 9.62487C11.2693 9.93085 11.4979 10.1981 11.8038 10.2223C12.1099 10.2464 12.3782 10.0181 12.4023 9.71199C12.4262 9.40597 12.1969 9.13848 11.8908 9.11443ZM13.4944 9.23944C13.1885 9.21556 12.921 9.44396 12.8969 9.74987C12.8729 10.0559 13.1014 10.3232 13.4073 10.3474C13.7134 10.3714 13.9817 10.1431 14.0058 9.83699C14.0297 9.53097 13.8004 9.26348 13.4944 9.23944ZM20.3838 4.32547C20.4475 4.38816 20.4774 4.48541 20.439 4.58351L18.5524 9.39584C18.5285 9.45668 18.5314 9.52088 18.5548 9.57627C18.532 9.5211 18.5296 9.45711 18.5532 9.39689L20.4399 4.58456C20.4785 4.48576 20.4485 4.38806 20.3838 4.32547ZM15.0281 6.1009C15.0287 6.10269 15.03 6.10423 15.0306 6.106L15.0299 6.103L13.3812 1.20393L13.3803 1.20288L15.0281 6.1009Z" fill="black"/>
<path d="M12.72 1.0413L12.0323 0.664954L12.0244 0.679323L12.0172 0.694009L12.72 1.0413ZM13.6216 1.11213L14.3701 0.878863L14.3652 0.86333L14.3597 0.848011L13.6216 1.11213ZM13.6247 1.12217L12.8762 1.35543L12.8788 1.36381L12.8816 1.37213L13.6247 1.12217ZM15.2669 6.00407L14.5238 6.25403L14.7911 7.0486L15.566 6.72877L15.2669 6.00407ZM20.0282 4.03892L19.7294 3.31409L19.7291 3.31422L20.0282 4.03892ZM20.6793 4.6788L21.4092 4.96501L21.4092 4.96492L20.6793 4.6788ZM18.7989 9.47399L18.0691 9.18777L17.763 9.96822L18.5622 10.2214L18.7989 9.47399ZM23.7088 11.0293L23.9457 10.282L23.9456 10.2819L23.7088 11.0293ZM23.7971 11.9375L24.1723 12.6259L24.1728 12.6256L23.7971 11.9375ZM19.2747 14.4024L18.8995 13.714L18.1635 14.1151L18.613 14.8227L19.2747 14.4024ZM22.0364 18.7502L22.6985 18.3302L22.6982 18.3298L22.0364 18.7502ZM21.5189 19.502L21.3639 20.2705L21.364 20.2705L21.5189 19.502ZM16.4699 18.4833L16.625 17.7148L15.8032 17.549L15.6928 18.3801L16.4699 18.4833ZM15.7916 23.5894L16.5687 23.6931L16.5687 23.6927L15.7916 23.5894ZM14.9114 23.8328L14.2986 24.3217L14.2987 24.3218L14.9114 23.8328ZM11.6993 19.8071L12.3121 19.3181L11.7892 18.6628L11.1704 19.2283L11.6993 19.8071ZM7.89688 23.2817L7.36802 22.7029L7.36799 22.7029L7.89688 23.2817ZM7.06649 22.9039L6.28273 22.8847L6.28272 22.885L7.06649 22.9039ZM7.19286 17.7545L7.97663 17.7737L7.99719 16.9357L7.15972 16.9712L7.19286 17.7545ZM2.04672 17.9722L2.07936 18.7555L2.07986 18.7555L2.04672 17.9722ZM1.65394 17.1489L1.06592 16.6303L1.06583 16.6304L1.65394 17.1489ZM5.06074 13.2857L5.64875 13.8042L6.20319 13.1755L5.53884 12.6643L5.06074 13.2857ZM0.978769 10.1448L0.500646 10.7661L0.500668 10.7661L0.978769 10.1448ZM1.20685 9.26148L1.08972 8.48628L1.08938 8.48633L1.20685 9.26148ZM6.29937 8.49197L6.41651 9.26717L7.24526 9.14193L7.06503 8.32338L6.29937 8.49197ZM5.19188 3.46204L5.95754 3.29345L5.95753 3.29338L5.19188 3.46204ZM5.92557 2.92606L6.33007 2.25438L6.32076 2.24895L5.92557 2.92606ZM5.93492 2.93169L6.34354 2.26258L6.33938 2.26007L5.93492 2.93169ZM10.3309 5.61628L9.92232 6.28538L10.6378 6.7223L11.0259 5.97922L10.3309 5.61628ZM12.7154 1.05073L13.4103 1.41367L13.4144 1.40589L13.4183 1.39802L12.7154 1.05073ZM16.5018 18.2272L16.3467 18.9957L16.3468 18.9957L16.5018 18.2272ZM16.2175 18.4302L15.4403 18.3267L15.4403 18.3268L16.2175 18.4302ZM15.5358 23.5536L14.7586 23.4502L14.7586 23.4503L15.5358 23.5536ZM15.1111 23.6721L15.7072 23.1629L14.4993 24.1624L15.1111 23.6721ZM15.112 23.6732L15.7247 23.184L15.7166 23.1738L15.7081 23.1639L15.112 23.6732ZM15.5358 23.5654L16.3084 23.6989L16.3146 23.6631L16.3174 23.6268L15.5358 23.5654ZM15.5366 23.5557L14.7594 23.4523L14.7566 23.4732L14.755 23.4943L15.5366 23.5557ZM16.2184 18.4312L15.4414 18.3266L15.4412 18.3278L16.2184 18.4312ZM16.5037 18.2283L16.3486 18.9968L16.3487 18.9969L16.5037 18.2283ZM21.5701 19.2504L21.415 20.0189L21.4152 20.0189L21.5701 19.2504ZM21.8551 19.0259L22.6384 19.0602L21.0722 18.9844L21.8551 19.0259ZM21.5682 19.2492L21.4132 20.0178L21.4133 20.0178L21.5682 19.2492ZM11.7901 19.5605L11.4989 20.2884L12.0872 18.835L11.7901 19.5605ZM11.5379 19.6044L11.0091 19.0255L11.0089 19.0257L11.5379 19.6044ZM7.72275 23.0917L8.25131 23.6707L8.2517 23.6703L7.72275 23.0917ZM7.41901 23.105L7.88731 22.4762L6.94601 23.7303L7.41901 23.105ZM7.7163 23.099L8.22277 23.6975L8.22555 23.6951L7.7163 23.099ZM7.72365 23.0927L8.2329 23.6888L8.24285 23.6803L8.25252 23.6715L7.72365 23.0927ZM11.5398 19.6055L11.0118 19.0259L11.0109 19.0267L11.5398 19.6055ZM12.7351 6.5849L12.7965 5.80331L12.7965 5.80331L12.7351 6.5849ZM6.25953 12.1162L5.47794 12.0548L5.47794 12.0548L6.25953 12.1162ZM11.7919 18.5909L11.7305 19.3725L11.7305 19.3725L11.7919 18.5909ZM18.2665 13.0595L19.0481 13.1209L19.0481 13.1209L18.2665 13.0595ZM2.03463 17.7146L2.06732 18.4979L2.06773 18.4979L2.03463 17.7146ZM1.85327 17.6416L2.41994 17.0998L1.28191 18.1784L1.85327 17.6416ZM2.02661 17.7169L2.03026 18.5009L2.07513 18.5007L2.11968 18.4954L2.02661 17.7169ZM2.0365 17.7157L2.00339 16.9324L1.97332 16.9337L1.94343 16.9373L2.0365 17.7157ZM7.20032 17.4974L7.1674 16.7141L7.16721 16.7141L7.20032 17.4974ZM7.31884 17.5224L6.96365 18.2213L7.67622 16.8246L7.31884 17.5224ZM7.19942 17.4964L7.16774 16.713L7.16633 16.7131L7.19942 17.4964ZM21.8548 19.018L21.0708 19.0105L22.6386 19.033L21.8548 19.018ZM21.8478 18.9568L22.6055 18.7554L21.0881 19.1506L21.8478 18.9568ZM23.7976 11.4948L24.5811 11.465L23.014 11.5185L23.7976 11.4948ZM23.6729 11.7112L24.048 12.3996L24.0482 12.3995L23.6729 11.7112ZM19.1341 14.1846L18.759 13.4962L18.7588 13.4963L19.1341 14.1846ZM19.0468 14.5236L18.385 14.9439L18.385 14.944L19.0468 14.5236ZM21.8181 18.8859L22.48 18.4656L22.4799 18.4654L21.8181 18.8859ZM21.838 18.9325L21.1074 19.2169L22.5713 18.6551L21.838 18.9325ZM21.8242 18.8961L21.1288 19.2583L21.1375 19.2749L21.147 19.2912L21.8242 18.8961ZM21.8199 18.888L22.5152 18.5258L22.4997 18.4959L22.4817 18.4675L21.8199 18.888ZM19.0477 14.5246L18.3855 14.9444L18.3859 14.945L19.0477 14.5246ZM19.136 14.1858L19.5112 14.8742L19.5112 14.8741L19.136 14.1858ZM23.6738 11.7123L24.049 12.4007L24.0491 12.4006L23.6738 11.7123ZM12.6747 7.35401L12.7361 6.57242L12.7361 6.57242L12.6747 7.35401ZM17.4974 12.9991L18.279 13.0605L18.279 13.0605L17.4974 12.9991ZM11.8523 17.8218L11.7909 18.6034L11.7909 18.6034L11.8523 17.8218ZM7.02864 12.1766L6.24705 12.1152L6.24705 12.1152L7.02864 12.1766ZM10.5635 10.0367L11.2726 9.70219L11.2724 9.70177L10.5635 10.0367ZM10.3016 9.9427L9.96891 9.23276L9.96854 9.23294L10.3016 9.9427ZM10.2066 10.2036L9.49684 10.5366L9.49757 10.5382L10.2066 10.2036ZM12.9289 11.2746L12.641 10.5454L12.6392 10.5461L12.9289 11.2746ZM13.0614 11.2224L13.3493 11.9516L13.3511 11.9508L13.0614 11.2224ZM13.1716 10.9665L13.8994 10.675L13.8992 10.6746L13.1716 10.9665ZM12.9158 10.8563L12.6278 10.1271L12.6256 10.128L12.9158 10.8563ZM12.7823 10.9095L13.0719 11.638L13.0725 11.6378L12.7823 10.9095ZM23.6611 11.2871L23.3317 11.9986L23.9962 10.5783L23.6611 11.2871ZM23.6414 11.2768L23.9081 10.5395L23.8818 10.53L23.8549 10.5224L23.6414 11.2768ZM23.6366 11.2754L23.8501 10.521L23.3794 12.016L23.6366 11.2754ZM11.8908 9.11444L11.9522 8.33284L11.9518 8.33281L11.8908 9.11444ZM11.2934 9.62487L10.5118 9.56326L10.5118 9.56347L11.2934 9.62487ZM11.8038 10.2223L11.742 11.0039L11.7424 11.0039L11.8038 10.2223ZM12.4023 9.71199L13.1838 9.7734L13.1839 9.77319L12.4023 9.71199ZM13.4944 9.23944L13.5558 8.45784L13.5554 8.45781L13.4944 9.23944ZM12.8969 9.74987L12.1153 9.68826L12.1153 9.68847L12.8969 9.74987ZM13.4073 10.3474L13.3455 11.1289L13.3459 11.1289L13.4073 10.3474ZM14.0058 9.83699L14.7874 9.8984L14.7874 9.89819L14.0058 9.83699ZM20.3838 4.32547L20.9291 3.76219L19.8338 4.88415L20.3838 4.32547ZM20.439 4.58351L21.1689 4.86966L21.169 4.86946L20.439 4.58351ZM18.5524 9.39584L17.8224 9.10968L17.8224 9.10983L18.5524 9.39584ZM18.5548 9.57627L17.8327 9.88149L19.2792 9.27637L18.5548 9.57627ZM18.5532 9.39689L17.8233 9.11073L17.8233 9.11075L18.5532 9.39689ZM20.4399 4.58456L21.1698 4.87071L21.1701 4.86996L20.4399 4.58456ZM15.0281 6.1009L14.285 6.35089L14.2851 6.35095L15.0281 6.1009ZM15.0306 6.10599L14.2935 6.37297L15.7916 5.91709L15.0306 6.10599ZM15.0299 6.103L15.7908 5.91409L15.7831 5.88315L15.773 5.85294L15.0299 6.103ZM13.3812 1.20393L14.1243 0.953872L14.0759 0.810056L13.9773 0.694685L13.3812 1.20393ZM13.3803 1.20288L13.9764 0.693635L12.6372 1.45287L13.3803 1.20288ZM12.72 1.0413L13.4078 1.41764C13.2882 1.63621 12.9677 1.61177 12.8834 1.37624L13.6216 1.11213L14.3597 0.848011C13.9879 -0.191215 12.5616 -0.302343 12.0323 0.664954L12.72 1.0413ZM13.6216 1.11213L12.8731 1.34539L12.8762 1.35543L13.6247 1.12217L14.3732 0.888904L14.3701 0.878863L13.6216 1.11213ZM13.6247 1.12217L12.8816 1.37213L14.5238 6.25403L15.2669 6.00407L16.01 5.7541L14.3678 0.872203L13.6247 1.12217ZM15.2669 6.00407L15.566 6.72877L20.3273 4.76362L20.0282 4.03892L19.7291 3.31422L14.9678 5.27937L15.2669 6.00407ZM20.0282 4.03892L20.327 4.76376C20.0925 4.86041 19.8568 4.62889 19.9494 4.39267L20.6793 4.6788L21.4092 4.96492C21.8208 3.91502 20.7718 2.8844 19.7294 3.31409L20.0282 4.03892ZM20.6793 4.6788L19.9494 4.39258L18.0691 9.18777L18.7989 9.47399L19.5288 9.7602L21.4092 4.96501L20.6793 4.6788ZM18.7989 9.47399L18.5622 10.2214L23.472 11.7767L23.7088 11.0293L23.9456 10.2819L19.0357 8.72659L18.7989 9.47399ZM23.7088 11.0293L23.472 11.7767C23.2319 11.7006 23.1973 11.3717 23.4215 11.2493L23.7971 11.9375L24.1728 12.6256C25.1638 12.0847 25.0187 10.622 23.9457 10.282L23.7088 11.0293ZM23.7971 11.9375L23.4219 11.2491L18.8995 13.714L19.2747 14.4024L19.6499 15.0908L24.1723 12.6259L23.7971 11.9375ZM19.2747 14.4024L18.613 14.8227L21.3747 19.1706L22.0364 18.7502L22.6982 18.3298L19.9365 13.982L19.2747 14.4024ZM22.0364 18.7502L21.3744 19.1702C21.2375 18.9543 21.4272 18.6837 21.6739 18.7335L21.5189 19.502L21.364 20.2705C22.4673 20.493 23.3034 19.2838 22.6985 18.3302L22.0364 18.7502ZM21.5189 19.502L21.674 18.7335L16.625 17.7148L16.4699 18.4833L16.3149 19.2518L21.3639 20.2705L21.5189 19.502ZM16.4699 18.4833L15.6928 18.3801L15.0144 23.4862L15.7916 23.5894L16.5687 23.6927L17.2471 18.5866L16.4699 18.4833ZM15.7916 23.5894L15.0144 23.4857C15.0483 23.2319 15.3674 23.1473 15.5241 23.3437L14.9114 23.8328L14.2987 24.3218C15.0006 25.2012 16.4192 24.8131 16.5687 23.6931L15.7916 23.5894ZM14.9114 23.8328L15.5242 23.3438L12.3121 19.3181L11.6993 19.8071L11.0864 20.2961L14.2986 24.3217L14.9114 23.8328ZM11.6993 19.8071L11.1704 19.2283L7.36802 22.7029L7.89688 23.2817L8.42575 23.8604L12.2281 20.3858L11.6993 19.8071ZM7.89688 23.2817L7.36799 22.7029C7.55449 22.5325 7.85641 22.6682 7.85027 22.9228L7.06649 22.9039L6.28272 22.885C6.25551 24.0132 7.59412 24.6204 8.42577 23.8604L7.89688 23.2817ZM7.06649 22.9039L7.85026 22.9232L7.97663 17.7737L7.19286 17.7545L6.4091 17.7352L6.28273 22.8847L7.06649 22.9039ZM7.19286 17.7545L7.15972 16.9712L2.01358 17.1889L2.04672 17.9722L2.07986 18.7555L7.226 18.5378L7.19286 17.7545ZM2.04672 17.9722L2.01408 17.1889C2.26687 17.1783 2.41018 17.4766 2.24206 17.6673L1.65394 17.1489L1.06583 16.6304C0.319904 17.4766 0.953718 18.8024 2.07936 18.7555L2.04672 17.9722ZM1.65394 17.1489L2.24196 17.6674L5.64875 13.8042L5.06074 13.2857L4.47272 12.7671L1.06592 16.6303L1.65394 17.1489ZM5.06074 13.2857L5.53884 12.6643L1.45687 9.52342L0.978769 10.1448L0.500668 10.7661L4.58263 13.907L5.06074 13.2857ZM0.978769 10.1448L1.45689 9.52344C1.65791 9.67812 1.57514 9.99862 1.32433 10.0366L1.20685 9.26148L1.08938 8.48633C-0.0253824 8.65528 -0.392997 10.0784 0.500646 10.7661L0.978769 10.1448ZM1.20685 9.26148L1.32399 10.0367L6.41651 9.26717L6.29937 8.49197L6.18223 7.71676L1.08972 8.48628L1.20685 9.26148ZM6.29937 8.49197L7.06503 8.32338L5.95754 3.29345L5.19188 3.46204L4.42622 3.63062L5.53371 8.66055L6.29937 8.49197ZM5.19188 3.46204L5.95753 3.29338C6.0116 3.53887 5.74788 3.73012 5.53038 3.60317L5.92557 2.92606L6.32076 2.24895C5.36046 1.68847 4.18567 2.53859 4.42624 3.63069L5.19188 3.46204ZM5.92557 2.92606L5.52111 3.59767L5.53046 3.60331L5.93492 2.93169L6.33938 2.26007L6.33003 2.25444L5.92557 2.92606ZM5.93492 2.93169L5.52631 3.60079L9.92232 6.28538L10.3309 5.61628L10.7395 4.94718L6.34353 2.26259L5.93492 2.93169ZM10.3309 5.61628L11.0259 5.97922L13.4103 1.41367L12.7154 1.05073L12.0204 0.687786L9.636 5.25334L10.3309 5.61628ZM12.7154 1.05073L13.4183 1.39802L13.4229 1.38859L12.72 1.0413L12.0172 0.694009L12.0125 0.703438L12.7154 1.05073ZM16.5018 18.2272L16.6569 17.4587C16.0759 17.3415 15.5184 17.7403 15.4403 18.3267L16.2175 18.4302L16.9946 18.5336C16.9531 18.8454 16.6561 19.0581 16.3467 18.9957L16.5018 18.2272ZM16.2175 18.4302L15.4403 18.3268L14.7586 23.4502L15.5358 23.5536L16.3129 23.6571L16.9946 18.5336L16.2175 18.4302ZM15.5358 23.5536L14.7586 23.4503C14.8217 22.976 15.4227 22.8072 15.7229 23.1818L15.1111 23.6721L14.4993 24.1624C15.063 24.8658 16.1942 24.5493 16.3129 23.657L15.5358 23.5536ZM15.1111 23.6721L14.515 24.1814L14.5159 24.1824L15.112 23.6732L15.7081 23.1639L15.7072 23.1629L15.1111 23.6721ZM15.112 23.6732L14.4993 24.1623C15.0526 24.8553 16.1589 24.5637 16.3084 23.6989L15.5358 23.5654L14.7633 23.4319C14.8431 22.97 15.4304 22.8154 15.7247 23.184L15.112 23.6732ZM15.5358 23.5654L16.3174 23.6268L16.3182 23.6171L15.5366 23.5557L14.755 23.4943L14.7542 23.504L15.5358 23.5654ZM15.5366 23.5557L16.3137 23.6591L16.9955 18.5346L16.2184 18.4312L15.4412 18.3278L14.7594 23.4523L15.5366 23.5557ZM16.2184 18.4312L16.9954 18.5358C16.9531 18.8493 16.6555 19.0588 16.3486 18.9968L16.5037 18.2283L16.6588 17.4598C16.0804 17.3431 15.5205 17.7389 15.4414 18.3266L16.2184 18.4312ZM16.5037 18.2283L16.3487 18.9969L21.415 20.0189L21.5701 19.2504L21.7251 18.4818L16.6587 17.4598L16.5037 18.2283ZM21.5701 19.2504L21.4152 20.0189C22.095 20.1559 22.6138 19.6218 22.6384 19.0602L21.8551 19.0259L21.0719 18.9916C21.0845 18.7031 21.3549 18.4073 21.7249 18.4818L21.5701 19.2504ZM21.8551 19.0259L21.0722 18.9844C21.0875 18.6952 21.3583 18.4072 21.723 18.4807L21.5682 19.2492L21.4133 20.0178C22.0865 20.1534 22.6083 19.6287 22.638 19.0674L21.8551 19.0259ZM21.5682 19.2492L21.7232 18.4807L16.6568 17.4587L16.5018 18.2272L16.3468 18.9957L21.4132 20.0178L21.5682 19.2492ZM11.7901 19.5605L12.0872 18.835C11.742 18.6937 11.3179 18.7434 11.0091 19.0255L11.5379 19.6044L12.0667 20.1832C11.8998 20.3356 11.6729 20.3597 11.4931 20.2861L11.7901 19.5605ZM11.5379 19.6044L11.0089 19.0257L7.1938 22.513L7.72275 23.0917L8.2517 23.6703L12.0668 20.183L11.5379 19.6044ZM7.72275 23.0917L7.19419 22.5126C7.41442 22.3116 7.71195 22.3456 7.88731 22.4762L7.41901 23.105L6.95071 23.7338C7.2973 23.9919 7.84558 24.0411 8.25131 23.6707L7.72275 23.0917ZM7.41901 23.105L6.94601 23.7303C7.28357 23.9856 7.81509 24.0424 8.22276 23.6974L7.7163 23.099L7.20984 22.5005C7.43237 22.3122 7.72108 22.3505 7.89202 22.4798L7.41901 23.105ZM7.7163 23.099L8.22555 23.6951L8.2329 23.6888L7.72365 23.0927L7.2144 22.4966L7.20705 22.5029L7.7163 23.099ZM7.72365 23.0927L8.25252 23.6715L12.0686 20.1842L11.5398 19.6055L11.0109 19.0267L7.19478 22.514L7.72365 23.0927ZM11.5398 19.6055L12.0677 20.1851C11.9051 20.3331 11.6816 20.3615 11.4989 20.2884L11.7901 19.5605L12.0814 18.8326C11.7342 18.6937 11.3153 18.7495 11.0118 19.0259L11.5398 19.6055ZM12.7351 6.5849L12.7965 5.80331C9.0494 5.50892 5.77236 8.30737 5.47794 12.0548L6.25953 12.1162L7.04112 12.1776C7.26769 9.29383 9.78959 7.13991 12.6737 7.36649L12.7351 6.5849ZM6.25953 12.1162L5.47794 12.0548C5.18352 15.8022 7.98334 19.0781 11.7305 19.3725L11.7919 18.5909L11.8533 17.8093C8.96915 17.5827 6.81456 15.0614 7.04112 12.1776L6.25953 12.1162ZM11.7919 18.5909L11.7305 19.3725C15.4777 19.6667 18.7537 16.8681 19.0481 13.1209L18.2665 13.0595L17.4849 12.9981C17.2583 15.8819 14.7372 18.0358 11.8532 17.8093L11.7919 18.5909ZM18.2665 13.0595L19.0481 13.1209C19.3425 9.3737 16.5437 6.09783 12.7965 5.80331L12.7351 6.5849L12.6737 7.36649C15.5576 7.59316 17.7114 10.1143 17.4849 12.9981L18.2665 13.0595ZM2.03463 17.7146L2.00194 16.9313C2.17119 16.9242 2.32182 16.9971 2.41994 17.0998L1.85327 17.6416L1.28659 18.1834C1.47297 18.3783 1.74843 18.5112 2.06732 18.4979L2.03463 17.7146ZM1.85327 17.6416L1.28191 18.1784C1.45648 18.3642 1.71785 18.5023 2.03026 18.5009L2.02661 17.7169L2.02296 16.9329C2.19256 16.9321 2.33464 17.0089 2.42462 17.1047L1.85327 17.6416ZM2.02661 17.7169L2.11968 18.4954L2.12957 18.4942L2.0365 17.7157L1.94343 16.9373L1.93354 16.9384L2.02661 17.7169ZM2.0365 17.7157L2.06961 18.499L7.23343 18.2807L7.20032 17.4974L7.16721 16.7141L2.00339 16.9324L2.0365 17.7157ZM7.20032 17.4974L7.23324 18.2807C7.14656 18.2844 7.05289 18.2667 6.96365 18.2213L7.31884 17.5224L7.67404 16.8235C7.51415 16.7422 7.3392 16.7069 7.1674 16.7141L7.20032 17.4974ZM7.31884 17.5224L7.67622 16.8246C7.52244 16.7458 7.34787 16.7057 7.16774 16.713L7.19942 17.4964L7.23111 18.2797C7.13704 18.2835 7.04403 18.2625 6.96147 18.2202L7.31884 17.5224ZM7.19942 17.4964L7.16633 16.7131L2.00153 16.9313L2.03463 17.7146L2.06773 18.4979L7.23252 18.2797L7.19942 17.4964ZM21.8548 19.018L22.6387 19.0256C22.6394 18.9574 22.6341 18.863 22.6055 18.7554L21.8478 18.9568L21.0901 19.1582C21.0725 19.0917 21.0705 19.0379 21.0708 19.0105L21.8548 19.018ZM21.8478 18.9568L21.0881 19.1506C21.0746 19.0976 21.0701 19.0474 21.0709 19.0031L21.8548 19.018L22.6386 19.033C22.6402 18.948 22.6315 18.8571 22.6075 18.7629L21.8478 18.9568ZM23.7976 11.4948L23.014 11.5185C23.0083 11.3313 23.1042 11.1284 23.2975 11.0229L23.6729 11.7112L24.0482 12.3995C24.4151 12.1995 24.592 11.8258 24.5813 11.471L23.7976 11.4948ZM23.6729 11.7112L23.2977 11.0228L18.759 13.4962L19.1341 14.1846L19.5093 14.873L24.048 12.3996L23.6729 11.7112ZM19.1341 14.1846L18.7588 13.4963C18.238 13.7803 18.0681 14.4451 18.385 14.9439L19.0468 14.5236L19.7086 14.1032C19.8769 14.3682 19.787 14.7216 19.5095 14.8729L19.1341 14.1846ZM19.0468 14.5236L18.385 14.944L21.1564 19.3063L21.8181 18.8859L22.4799 18.4654L19.7085 14.1032L19.0468 14.5236ZM21.8181 18.8859L21.1563 19.3061C21.1226 19.2532 21.1047 19.2086 21.0985 19.1925C21.0955 19.1848 21.0935 19.1791 21.0949 19.1831C21.0952 19.184 21.0997 19.1968 21.1047 19.2098L21.838 18.9325L22.5713 18.6551C22.5733 18.6605 22.575 18.6654 22.5725 18.6584C22.5712 18.6546 22.5664 18.6411 22.5603 18.6255C22.548 18.5936 22.523 18.5334 22.48 18.4656L21.8181 18.8859ZM21.838 18.9325L22.5686 18.6481C22.576 18.6671 22.5806 18.6815 22.5812 18.6836C22.5815 18.6844 22.582 18.6859 22.5809 18.6825C22.5802 18.6803 22.5785 18.6751 22.5765 18.6688C22.5692 18.6467 22.5466 18.5786 22.5014 18.5011L21.8242 18.8961L21.147 19.2912C21.127 19.2569 21.1131 19.2266 21.1039 19.2043C21.0949 19.1826 21.0893 19.1657 21.0873 19.1596C21.0862 19.1564 21.0855 19.1542 21.0858 19.1552C21.0859 19.1554 21.086 19.1556 21.0861 19.156C21.0862 19.1564 21.0864 19.157 21.0866 19.1576C21.087 19.1589 21.0876 19.1609 21.0884 19.1632C21.091 19.1714 21.0977 19.192 21.1074 19.2169L21.838 18.9325ZM21.8242 18.8961L22.5195 18.534L22.5152 18.5258L21.8199 18.888L21.1246 19.2501L21.1288 19.2583L21.8242 18.8961ZM21.8199 18.888L22.4817 18.4675L19.7094 14.1042L19.0477 14.5246L18.3859 14.945L21.1582 19.3084L21.8199 18.888ZM19.0477 14.5246L19.7099 14.1049C19.8802 14.3736 19.7848 14.7251 19.5112 14.8742L19.136 14.1858L18.7608 13.4974C18.2441 13.779 18.0669 14.4418 18.3855 14.9444L19.0477 14.5246ZM19.136 14.1858L19.5112 14.8741L24.049 12.4007L23.6738 11.7123L23.2985 11.0239L18.7608 13.4974L19.136 14.1858ZM23.6738 11.7123L24.0491 12.4006C24.4212 12.1977 24.5945 11.8189 24.5811 11.465L23.7976 11.4948L23.0142 11.5245C23.0071 11.3389 23.101 11.1316 23.2984 11.024L23.6738 11.7123ZM12.6747 7.35401L12.6133 8.1356C15.0724 8.3289 16.909 10.4786 16.7158 12.9377L17.4974 12.9991L18.279 13.0605C18.54 9.73807 16.0584 6.83357 12.7361 6.57242L12.6747 7.35401ZM17.4974 12.9991L16.7158 12.9377C16.5226 15.3967 14.3728 17.2333 11.9137 17.0402L11.8523 17.8218L11.7909 18.6034C15.1133 18.8642 18.0179 16.3829 18.279 13.0605L17.4974 12.9991ZM11.8523 17.8218L11.9137 17.0402C9.45435 16.8469 7.61705 14.697 7.81024 12.238L7.02864 12.1766L6.24705 12.1152C5.98601 15.4379 8.46859 18.3423 11.7909 18.6034L11.8523 17.8218ZM7.02864 12.1766L7.81024 12.238C8.00343 9.77908 10.1539 7.94239 12.6133 8.13561L12.6747 7.35401L12.7361 6.57242C9.4138 6.31141 6.50811 8.79257 6.24705 12.1152L7.02864 12.1766ZM10.5635 10.0367L11.2724 9.70177C11.0408 9.21169 10.4574 9.00388 9.96891 9.23276L10.3016 9.9427L10.6342 10.6526C10.3429 10.7891 9.99345 10.6653 9.85472 10.3717L10.5635 10.0367ZM10.3016 9.9427L9.96854 9.23294C9.48183 9.4613 9.26513 10.0428 9.49684 10.5366L10.2066 10.2036L10.9164 9.87064C11.0559 10.1681 10.9245 10.5164 10.6346 10.6525L10.3016 9.9427ZM10.2066 10.2036L9.49757 10.5382C10.1554 11.9323 11.7868 12.5726 13.2187 12.0031L12.9289 11.2746L12.6392 10.5461C11.9744 10.8106 11.219 10.512 10.9156 9.86908L10.2066 10.2036ZM12.9289 11.2746L13.2169 12.0039L13.3493 11.9516L13.0614 11.2224L12.7735 10.4931L12.641 10.5454L12.9289 11.2746ZM13.0614 11.2224L13.3511 11.9508C13.8536 11.751 14.1018 11.1803 13.8994 10.675L13.1716 10.9665L12.4438 11.2581C12.3222 10.9546 12.4716 10.6132 12.7716 10.4939L13.0614 11.2224ZM13.1716 10.9665L13.8992 10.6746C13.6985 10.1744 13.1308 9.92847 12.6278 10.1271L12.9158 10.8563L13.2037 11.5855C12.9028 11.7043 12.5638 11.5573 12.444 11.2584L13.1716 10.9665ZM12.9158 10.8563L12.6256 10.128L12.4921 10.1812L12.7823 10.9095L13.0725 11.6378L13.206 11.5846L12.9158 10.8563ZM12.7823 10.9095L12.4926 10.181C12.0216 10.3683 11.4869 10.1565 11.2726 9.70219L10.5635 10.0367L9.85451 10.3713C10.4235 11.5771 11.8343 12.1301 13.0719 11.638L12.7823 10.9095ZM23.6611 11.2871L23.9905 10.5757C24.0165 10.5877 24.0358 10.5985 24.0439 10.6031C24.0482 10.6056 24.0513 10.6074 24.0516 10.6076C24.0538 10.6089 24.0491 10.6061 24.0475 10.6051C24.042 10.602 24.0252 10.5921 24.0035 10.5811C23.9811 10.5696 23.9486 10.5542 23.9081 10.5395L23.6414 11.2768L23.3746 12.014C23.3377 12.0006 23.3086 11.9868 23.2895 11.977C23.2711 11.9676 23.2576 11.9597 23.2554 11.9584C23.2546 11.9579 23.2541 11.9576 23.2543 11.9577C23.2545 11.9579 23.2543 11.9578 23.2548 11.958C23.2551 11.9582 23.2555 11.9585 23.2561 11.9588C23.258 11.9599 23.2627 11.9627 23.2686 11.966C23.2799 11.9725 23.3025 11.985 23.3317 11.9986L23.6611 11.2871ZM23.6414 11.2768L23.8549 10.5224L23.8501 10.521L23.6366 11.2754L23.4231 12.0298L23.4279 12.0311L23.6414 11.2768ZM23.6366 11.2754L23.3794 12.016C23.3543 12.0073 23.3338 11.9986 23.3193 11.992C23.305 11.9856 23.2945 11.9802 23.2906 11.9782C23.2886 11.9772 23.2872 11.9765 23.2878 11.9767C23.2879 11.9768 23.288 11.9769 23.2883 11.977C23.2885 11.9771 23.2889 11.9773 23.2892 11.9775C23.29 11.9779 23.2912 11.9786 23.2926 11.9793C23.2977 11.9819 23.3102 11.9884 23.326 11.9959L23.6611 11.2871L23.9962 10.5783C24.008 10.5839 24.0165 10.5884 24.0176 10.5889C24.0178 10.5891 24.0188 10.5896 24.0165 10.5884C24.015 10.5876 24.0117 10.5858 24.0076 10.5838C23.9934 10.5764 23.9506 10.5545 23.8938 10.5348L23.6366 11.2754ZM11.8908 9.11444L11.9518 8.33281C11.2148 8.2753 10.5699 8.82565 10.5118 9.56326L11.2934 9.62487L12.0749 9.68648C12.065 9.81228 11.9551 9.90583 11.8299 9.89606L11.8908 9.11444ZM11.2934 9.62487L10.5118 9.56347C10.4538 10.3015 11.0051 10.9456 11.742 11.0039L11.8038 10.2223L11.8656 9.44079C11.9906 9.45067 12.0849 9.56018 12.075 9.68628L11.2934 9.62487ZM11.8038 10.2223L11.7424 11.0039C12.4784 11.0618 13.1257 10.5129 13.1838 9.7734L12.4023 9.71199L11.6207 9.65058C11.6307 9.52322 11.7414 9.43103 11.8652 9.44076L11.8038 10.2223ZM12.4023 9.71199L13.1839 9.77319C13.2417 9.03408 12.6884 8.39067 11.9522 8.33284L11.8908 9.11444L11.8294 9.89603C11.7054 9.88628 11.6107 9.77786 11.6206 9.65079L12.4023 9.71199ZM13.4944 9.23944L13.5554 8.45781C12.8183 8.40028 12.1735 8.95067 12.1153 9.68826L12.8969 9.74987L13.6785 9.81148C13.6686 9.93725 13.5586 10.0308 13.4334 10.0211L13.4944 9.23944ZM12.8969 9.74987L12.1153 9.68847C12.0573 10.4265 12.6086 11.0706 13.3455 11.1289L13.4073 10.3474L13.4691 9.56579C13.5941 9.57567 13.6884 9.68521 13.6785 9.81128L12.8969 9.74987ZM13.4073 10.3474L13.3459 11.1289C14.0819 11.1868 14.7293 10.6379 14.7874 9.8984L14.0058 9.83699L13.2242 9.77559C13.2342 9.64822 13.3449 9.55603 13.4687 9.56576L13.4073 10.3474ZM14.0058 9.83699L14.7874 9.89819C14.8453 9.15908 14.2919 8.51568 13.5558 8.45784L13.4944 9.23944L13.433 10.021C13.3089 10.0113 13.2142 9.90286 13.2242 9.77579L14.0058 9.83699ZM20.3838 4.32547L19.8338 4.88415C19.6966 4.74911 19.6217 4.5203 19.709 4.29755L20.439 4.58351L21.169 4.86946C21.3331 4.45051 21.1984 4.0272 20.9338 3.76678L20.3838 4.32547ZM20.439 4.58351L19.7091 4.29735L17.8224 9.10968L18.5524 9.39584L19.2823 9.68199L21.1689 4.86966L20.439 4.58351ZM18.5524 9.39584L17.8224 9.10983C17.7203 9.37033 17.7335 9.6468 17.8327 9.88149L18.5548 9.57627L19.277 9.27105C19.3293 9.39495 19.3367 9.54304 19.2823 9.68185L18.5524 9.39584ZM18.5548 9.57627L19.2792 9.27637C19.331 9.40149 19.3363 9.5476 19.2832 9.68303L18.5532 9.39689L17.8233 9.11075C17.723 9.36662 17.733 9.64072 17.8305 9.87618L18.5548 9.57627ZM18.5532 9.39689L19.2832 9.68304L21.1698 4.87071L20.4399 4.58456L19.71 4.2984L17.8233 9.11073L18.5532 9.39689ZM20.4399 4.58456L21.1701 4.86996C21.3337 4.45134 21.2005 4.02487 20.9291 3.76219L20.3838 4.32547L19.8385 4.88874C19.6965 4.75125 19.6233 4.52018 19.7097 4.29916L20.4399 4.58456ZM15.0281 6.1009L14.2851 6.35095C14.2932 6.37524 14.3017 6.39647 14.3094 6.41425C14.3171 6.43198 14.3244 6.44695 14.3303 6.45855C14.3362 6.47007 14.3413 6.47934 14.3446 6.48525C14.3477 6.49085 14.3503 6.49536 14.3505 6.49569C14.351 6.49644 14.3505 6.49557 14.3501 6.49502C14.3497 6.49421 14.3487 6.49255 14.3475 6.49042C14.3452 6.48629 14.3409 6.47872 14.3359 6.46908C14.3308 6.45933 14.3241 6.44621 14.317 6.43044C14.3097 6.4146 14.3016 6.3953 14.2935 6.37297L15.0306 6.10599L15.7678 5.83902C15.7595 5.81625 15.7512 5.79651 15.7438 5.78025C15.7364 5.76404 15.7296 5.7505 15.7242 5.74033C15.719 5.73026 15.7145 5.72228 15.7119 5.71773C15.7106 5.7154 15.7095 5.71353 15.7089 5.71251C15.7085 5.71176 15.7079 5.71068 15.7082 5.71122C15.7083 5.71133 15.7089 5.71242 15.7097 5.71384C15.7105 5.71532 15.7118 5.7176 15.7134 5.72041C15.7165 5.7259 15.7213 5.73476 15.727 5.74586C15.7327 5.75703 15.7398 5.77157 15.7473 5.78886C15.7549 5.80622 15.7631 5.827 15.7712 5.85085L15.0281 6.1009ZM15.0306 6.10599L15.7916 5.91709L15.7908 5.91409L15.0299 6.103L14.269 6.2919L14.2697 6.2949L15.0306 6.10599ZM15.0299 6.103L15.773 5.85294L14.1243 0.953872L13.3812 1.20393L12.6382 1.454L14.2869 6.35306L15.0299 6.103ZM13.3812 1.20393L13.9773 0.694685L13.9764 0.693635L13.3803 1.20288L12.7842 1.71213L12.7851 1.71318L13.3812 1.20393ZM13.3803 1.20288L12.6372 1.45287L14.285 6.35089L15.0281 6.1009L15.7712 5.85091L14.1234 0.952896L13.3803 1.20288Z" fill="white" mask="url(#path-1-outside-1_4_5)"/>
</svg>
